<svg xmlns="http://www.w3.org/2000/svg" xmlns:xlink="http://www.w3.org/1999/xlink" width="70" zoomAndPan="magnify" viewBox="0 0 52.5 74.999997" height="100" preserveAspectRatio="xMidYMid meet" version="1.0"><defs><g/><clipPath id="c7b7bd98f0"><path d="M 41 21 L 50.980469 21 L 50.980469 57 L 41 57 Z M 41 21 " clip-rule="nonzero"/></clipPath><clipPath id="a9d4f0b629"><path d="M 45 21 L 50.980469 21 L 50.980469 57 L 45 57 Z M 45 21 " clip-rule="nonzero"/></clipPath><clipPath id="7284eed26d"><path d="M 41 7 L 50.980469 7 L 50.980469 22 L 41 22 Z M 41 7 " clip-rule="nonzero"/></clipPath><clipPath id="4f6bd84888"><path d="M 41 50 L 50.980469 50 L 50.980469 57 L 41 57 Z M 41 50 " clip-rule="nonzero"/></clipPath><clipPath id="a04f51ca1d"><path d="M 1.480469 0.78125 L 50.980469 0.78125 L 50.980469 57.03125 L 1.480469 57.03125 Z M 1.480469 0.78125 " clip-rule="nonzero"/></clipPath></defs><path fill="#ffb92d" d="M 2.371094 21.875 L 41.257812 21.875 L 41.257812 56.152344 L 2.371094 56.152344 Z M 2.371094 21.875 " fill-opacity="1" fill-rule="nonzero"/><path fill="#f08616" d="M 38.671875 21.875 L 38.671875 46.671875 C 38.671875 47.152344 38.625 47.625 38.53125 48.09375 C 38.4375 48.5625 38.296875 49.019531 38.113281 49.460938 C 37.929688 49.902344 37.703125 50.320312 37.4375 50.71875 C 37.167969 51.117188 36.867188 51.484375 36.527344 51.824219 C 36.183594 52.160156 35.816406 52.464844 35.414062 52.730469 C 35.015625 52.996094 34.59375 53.21875 34.148438 53.402344 C 33.707031 53.585938 33.246094 53.722656 32.777344 53.816406 C 32.304688 53.910156 31.828125 53.957031 31.347656 53.957031 L 2.371094 53.957031 L 2.371094 56.152344 L 41.257812 56.152344 L 41.257812 21.875 Z M 38.671875 21.875 " fill-opacity="1" fill-rule="nonzero"/><g clip-path="url(#c7b7bd98f0)"><path fill="#ffb92d" d="M 45.675781 50.878906 L 41.257812 56.152344 L 41.257812 21.875 L 50.09375 21.875 L 50.09375 56.152344 Z M 45.675781 50.878906 " fill-opacity="1" fill-rule="nonzero"/></g><g clip-path="url(#a9d4f0b629)"><path fill="#f08616" d="M 45.675781 21.875 L 45.675781 50.878906 L 50.09375 56.152344 L 50.09375 21.875 Z M 45.675781 21.875 " fill-opacity="1" fill-rule="nonzero"/></g><g clip-path="url(#7284eed26d)"><path fill="#f39e45" d="M 45.675781 7.8125 L 50.09375 21.875 L 41.257812 21.875 Z M 45.675781 7.8125 " fill-opacity="1" fill-rule="nonzero"/></g><g clip-path="url(#4f6bd84888)"><path fill="#f39e45" d="M 45.675781 50.878906 L 50.09375 56.152344 L 41.257812 56.152344 Z M 45.675781 50.878906 " fill-opacity="1" fill-rule="nonzero"/></g><path fill="#ffb92d" d="M 29.765625 43.847656 L 29.765625 46.484375 C 29.765625 46.71875 29.722656 46.941406 29.632812 47.15625 C 29.542969 47.375 29.414062 47.5625 29.25 47.726562 C 29.082031 47.894531 28.894531 48.019531 28.675781 48.109375 C 28.460938 48.199219 28.234375 48.242188 28 48.242188 C 27.765625 48.242188 27.542969 48.195312 27.324219 48.105469 C 27.109375 48.015625 26.917969 47.890625 26.753906 47.722656 C 26.589844 47.558594 26.460938 47.371094 26.371094 47.15625 C 26.28125 46.941406 26.234375 46.71875 26.230469 46.484375 L 26.230469 48.242188 C 26.230469 48.476562 26.1875 48.699219 26.097656 48.914062 C 26.007812 49.128906 25.878906 49.320312 25.714844 49.484375 C 25.546875 49.648438 25.355469 49.777344 25.140625 49.867188 C 24.925781 49.957031 24.699219 50 24.464844 50 C 24.230469 50 24.007812 49.953125 23.789062 49.863281 C 23.574219 49.773438 23.382812 49.648438 23.21875 49.480469 C 23.054688 49.316406 22.925781 49.128906 22.835938 48.914062 C 22.746094 48.699219 22.699219 48.476562 22.695312 48.242188 L 22.695312 43.847656 Z M 29.765625 43.847656 " fill-opacity="1" fill-rule="nonzero"/><path fill="#9bd76b" d="M 32.417969 41.210938 L 32.417969 42.089844 L 31.746094 42.089844 C 31.605469 42.089844 31.472656 42.125 31.347656 42.1875 L 30.316406 42.96875 L 29.765625 43.382812 L 28 44.726562 L 25.347656 42.96875 L 22.695312 44.726562 L 22.695312 42.96875 L 20.046875 44.726562 L 18.277344 42.96875 L 15.628906 44.726562 L 13.277344 42.96875 L 12.332031 42.265625 C 12.171875 42.152344 11.996094 42.09375 11.800781 42.089844 L 11.207031 42.089844 L 11.207031 41.210938 C 11.207031 40.96875 11.292969 40.761719 11.46875 40.589844 C 11.640625 40.417969 11.847656 40.332031 12.09375 40.332031 L 31.535156 40.332031 C 31.777344 40.332031 31.988281 40.417969 32.160156 40.589844 C 32.332031 40.761719 32.417969 40.96875 32.417969 41.210938 Z M 32.417969 41.210938 " fill-opacity="1" fill-rule="nonzero"/><path fill="#ff6d6f" d="M 30.316406 42.96875 C 30.609375 42.96875 30.890625 43.027344 31.160156 43.136719 C 31.429688 43.25 31.671875 43.40625 31.878906 43.613281 C 32.085938 43.820312 32.246094 44.058594 32.355469 44.328125 C 32.46875 44.59375 32.523438 44.875 32.523438 45.167969 C 32.523438 45.457031 32.46875 45.738281 32.355469 46.007812 C 32.246094 46.277344 32.085938 46.515625 31.878906 46.722656 C 31.671875 46.925781 31.429688 47.085938 31.160156 47.195312 C 30.890625 47.308594 30.609375 47.363281 30.316406 47.363281 L 28 47.363281 C 28.234375 47.363281 28.460938 47.320312 28.675781 47.230469 C 28.890625 47.140625 29.082031 47.011719 29.25 46.847656 C 29.414062 46.683594 29.542969 46.492188 29.632812 46.277344 C 29.722656 46.0625 29.765625 45.839844 29.765625 45.605469 L 29.765625 43.382812 Z M 30.316406 42.96875 " fill-opacity="1" fill-rule="nonzero"/><path fill="#f4b18b" d="M 30.652344 47.363281 L 30.652344 48.242188 C 30.652344 48.589844 30.617188 48.933594 30.550781 49.273438 C 30.480469 49.613281 30.378906 49.941406 30.246094 50.261719 C 30.113281 50.582031 29.949219 50.886719 29.757812 51.171875 C 29.5625 51.460938 29.34375 51.726562 29.097656 51.972656 C 28.851562 52.21875 28.585938 52.433594 28.292969 52.628906 C 28.003906 52.820312 27.699219 52.984375 27.378906 53.113281 C 27.054688 53.246094 26.722656 53.347656 26.382812 53.414062 C 26.042969 53.484375 25.695312 53.515625 25.347656 53.515625 L 18.277344 53.515625 C 17.71875 53.519531 17.175781 53.433594 16.644531 53.261719 C 16.109375 53.089844 15.617188 52.839844 15.164062 52.511719 C 14.710938 52.183594 14.320312 51.796875 13.988281 51.34375 C 13.660156 50.894531 13.40625 50.40625 13.234375 49.875 C 13.0625 49.34375 12.976562 48.800781 12.976562 48.242188 L 12.976562 47.320312 C 13.121094 47.347656 13.269531 47.363281 13.417969 47.363281 L 22.695312 47.363281 L 22.695312 48.242188 C 22.699219 48.476562 22.746094 48.699219 22.835938 48.914062 C 22.925781 49.128906 23.054688 49.316406 23.21875 49.480469 C 23.382812 49.648438 23.574219 49.773438 23.789062 49.863281 C 24.007812 49.953125 24.230469 50 24.464844 50 C 24.699219 50 24.925781 49.957031 25.140625 49.867188 C 25.355469 49.777344 25.546875 49.648438 25.714844 49.484375 C 25.878906 49.320312 26.007812 49.128906 26.097656 48.914062 C 26.1875 48.699219 26.230469 48.476562 26.230469 48.242188 L 26.230469 47.363281 Z M 30.652344 47.363281 " fill-opacity="1" fill-rule="nonzero"/><path fill="#f4b18b" d="M 30.652344 39.453125 L 30.652344 40.332031 L 12.976562 40.332031 L 12.976562 39.453125 C 12.976562 39.109375 13.007812 38.765625 13.078125 38.425781 C 13.144531 38.085938 13.246094 37.757812 13.378906 37.4375 C 13.511719 37.117188 13.675781 36.8125 13.871094 36.523438 C 14.0625 36.238281 14.28125 35.96875 14.527344 35.726562 C 14.773438 35.480469 15.042969 35.261719 15.332031 35.070312 C 15.621094 34.878906 15.925781 34.714844 16.25 34.582031 C 16.570312 34.449219 16.902344 34.347656 17.242188 34.28125 C 17.585938 34.214844 17.929688 34.179688 18.277344 34.179688 L 25.347656 34.179688 C 25.695312 34.179688 26.042969 34.214844 26.382812 34.28125 C 26.722656 34.347656 27.054688 34.449219 27.378906 34.582031 C 27.699219 34.714844 28.003906 34.878906 28.292969 35.070312 C 28.585938 35.261719 28.851562 35.480469 29.097656 35.726562 C 29.34375 35.96875 29.5625 36.238281 29.757812 36.523438 C 29.949219 36.8125 30.113281 37.117188 30.246094 37.4375 C 30.378906 37.757812 30.480469 38.085938 30.550781 38.425781 C 30.617188 38.765625 30.652344 39.109375 30.652344 39.453125 Z M 30.652344 39.453125 " fill-opacity="1" fill-rule="nonzero"/><path fill="#ff6d6f" d="M 22.695312 44.726562 L 22.695312 47.363281 L 13.417969 47.363281 C 13.269531 47.363281 13.121094 47.347656 12.976562 47.320312 C 12.582031 47.242188 12.238281 47.066406 11.941406 46.800781 C 11.644531 46.535156 11.433594 46.210938 11.3125 45.832031 C 11.191406 45.453125 11.175781 45.070312 11.265625 44.679688 C 11.355469 44.292969 11.535156 43.953125 11.808594 43.664062 C 12.203125 43.242188 12.6875 43.011719 13.265625 42.980469 L 13.277344 42.96875 L 15.628906 44.726562 L 18.277344 42.96875 L 20.046875 44.726562 L 22.695312 42.96875 Z M 22.695312 44.726562 " fill-opacity="1" fill-rule="nonzero"/><path fill="#cc8964" d="M 27.558594 34.664062 L 27.558594 35.5 C 27.558594 35.847656 27.492188 36.183594 27.355469 36.507812 C 27.222656 36.832031 27.03125 37.117188 26.78125 37.363281 C 26.53125 37.609375 26.246094 37.800781 25.921875 37.933594 C 25.597656 38.070312 25.257812 38.136719 24.90625 38.136719 L 13.152344 38.136719 C 13.039062 38.566406 12.976562 39.007812 12.976562 39.453125 L 12.976562 40.332031 L 30.652344 40.332031 L 30.652344 39.453125 C 30.652344 38.949219 30.578125 38.457031 30.4375 37.972656 C 30.292969 37.488281 30.082031 37.035156 29.808594 36.609375 C 29.535156 36.183594 29.207031 35.808594 28.824219 35.476562 C 28.441406 35.144531 28.019531 34.875 27.558594 34.664062 Z M 27.558594 34.664062 " fill-opacity="1" fill-rule="nonzero"/><path fill="#cc8964" d="M 30.316406 47.363281 L 28.628906 47.363281 C 28.589844 47.902344 28.453125 48.414062 28.21875 48.898438 C 27.984375 49.382812 27.667969 49.808594 27.273438 50.175781 C 26.875 50.542969 26.425781 50.824219 25.921875 51.023438 C 25.417969 51.21875 24.894531 51.320312 24.355469 51.320312 L 13.976562 51.320312 C 14.652344 52.257812 15.539062 52.902344 16.644531 53.261719 C 17.175781 53.433594 17.71875 53.519531 18.277344 53.515625 L 25.347656 53.515625 C 25.695312 53.515625 26.042969 53.484375 26.382812 53.414062 C 26.722656 53.347656 27.054688 53.246094 27.378906 53.113281 C 27.699219 52.984375 28.003906 52.820312 28.292969 52.628906 C 28.585938 52.433594 28.851562 52.21875 29.097656 51.972656 C 29.34375 51.726562 29.5625 51.460938 29.757812 51.171875 C 29.949219 50.886719 30.113281 50.582031 30.246094 50.261719 C 30.378906 49.941406 30.480469 49.613281 30.550781 49.273438 C 30.617188 48.933594 30.652344 48.589844 30.652344 48.242188 L 30.652344 47.363281 Z M 30.316406 47.363281 " fill-opacity="1" fill-rule="nonzero"/><path fill="#ffb92d" d="M 6.789062 1.660156 L 45.675781 1.660156 L 45.675781 7.8125 L 6.789062 7.8125 Z M 6.789062 1.660156 " fill-opacity="1" fill-rule="nonzero"/><path fill="#ffc757" d="M 45.675781 7.8125 L 41.257812 21.875 L 2.371094 21.875 L 6.789062 7.8125 Z M 45.675781 7.8125 " fill-opacity="1" fill-rule="nonzero"/><path fill="#333333" d="M 10.324219 41.210938 L 10.324219 42.089844 C 10.324219 42.332031 10.410156 42.539062 10.582031 42.710938 C 10.753906 42.882812 10.964844 42.96875 11.207031 42.96875 L 11.269531 42.96875 C 11.089844 43.140625 10.933594 43.332031 10.800781 43.542969 C 10.667969 43.75 10.5625 43.972656 10.480469 44.207031 C 10.402344 44.441406 10.355469 44.683594 10.335938 44.929688 C 10.316406 45.175781 10.324219 45.421875 10.367188 45.667969 C 10.40625 45.914062 10.476562 46.148438 10.574219 46.375 C 10.671875 46.601562 10.796875 46.816406 10.945312 47.011719 C 11.097656 47.210938 11.269531 47.386719 11.464844 47.542969 C 11.65625 47.699219 11.867188 47.828125 12.09375 47.933594 L 12.09375 48.242188 C 12.09375 48.648438 12.132812 49.046875 12.210938 49.445312 C 12.289062 49.839844 12.40625 50.222656 12.5625 50.597656 C 12.71875 50.972656 12.910156 51.324219 13.132812 51.660156 C 13.359375 51.996094 13.617188 52.308594 13.902344 52.59375 C 14.191406 52.878906 14.503906 53.132812 14.839844 53.359375 C 15.179688 53.582031 15.535156 53.773438 15.910156 53.925781 C 16.285156 54.082031 16.671875 54.199219 17.070312 54.277344 C 17.46875 54.355469 17.871094 54.394531 18.277344 54.394531 L 25.347656 54.394531 C 25.753906 54.394531 26.15625 54.355469 26.554688 54.277344 C 26.953125 54.195312 27.339844 54.078125 27.714844 53.925781 C 28.089844 53.769531 28.445312 53.582031 28.785156 53.355469 C 29.121094 53.132812 29.433594 52.875 29.71875 52.589844 C 30.007812 52.304688 30.265625 51.996094 30.488281 51.660156 C 30.714844 51.324219 30.90625 50.96875 31.0625 50.597656 C 31.21875 50.222656 31.335938 49.839844 31.414062 49.441406 C 31.496094 49.046875 31.535156 48.648438 31.535156 48.242188 L 31.535156 47.945312 C 32.074219 47.691406 32.503906 47.3125 32.820312 46.808594 C 33.140625 46.308594 33.300781 45.761719 33.300781 45.167969 C 33.300781 44.304688 32.988281 43.570312 32.367188 42.96875 L 32.417969 42.96875 C 32.664062 42.96875 32.871094 42.882812 33.042969 42.710938 C 33.214844 42.539062 33.300781 42.332031 33.300781 42.089844 L 33.300781 41.210938 C 33.300781 40.980469 33.257812 40.753906 33.167969 40.539062 C 33.078125 40.324219 32.949219 40.132812 32.785156 39.96875 C 32.617188 39.804688 32.429688 39.675781 32.210938 39.589844 C 31.996094 39.5 31.769531 39.453125 31.535156 39.453125 C 31.535156 39.050781 31.496094 38.652344 31.414062 38.253906 C 31.335938 37.859375 31.21875 37.472656 31.0625 37.101562 C 30.90625 36.726562 30.714844 36.375 30.488281 36.039062 C 30.265625 35.703125 30.007812 35.390625 29.71875 35.105469 C 29.433594 34.820312 29.121094 34.566406 28.785156 34.339844 C 28.445312 34.117188 28.089844 33.925781 27.714844 33.773438 C 27.339844 33.617188 26.953125 33.5 26.554688 33.421875 C 26.15625 33.34375 25.753906 33.300781 25.347656 33.300781 L 18.277344 33.300781 C 17.871094 33.300781 17.46875 33.34375 17.070312 33.421875 C 16.671875 33.5 16.289062 33.617188 15.914062 33.773438 C 15.535156 33.925781 15.179688 34.117188 14.84375 34.339844 C 14.503906 34.566406 14.195312 34.820312 13.90625 35.105469 C 13.617188 35.390625 13.363281 35.703125 13.136719 36.039062 C 12.910156 36.375 12.71875 36.726562 12.566406 37.101562 C 12.410156 37.472656 12.292969 37.859375 12.210938 38.253906 C 12.132812 38.652344 12.09375 39.050781 12.09375 39.453125 C 11.859375 39.453125 11.632812 39.5 11.414062 39.589844 C 11.199219 39.675781 11.007812 39.804688 10.84375 39.96875 C 10.675781 40.132812 10.546875 40.324219 10.457031 40.539062 C 10.371094 40.753906 10.324219 40.980469 10.324219 41.210938 Z M 21.8125 44.726562 L 21.8125 46.484375 L 13.417969 46.484375 C 13.089844 46.484375 12.800781 46.375 12.554688 46.160156 C 12.304688 45.945312 12.160156 45.675781 12.113281 45.351562 C 12.066406 45.027344 12.132812 44.730469 12.3125 44.453125 C 12.488281 44.179688 12.734375 43.996094 13.050781 43.902344 L 15.097656 45.429688 C 15.246094 45.542969 15.414062 45.601562 15.601562 45.605469 C 15.789062 45.613281 15.960938 45.5625 16.117188 45.457031 L 18.167969 44.101562 L 19.421875 45.347656 C 19.570312 45.496094 19.75 45.582031 19.957031 45.601562 C 20.167969 45.621094 20.359375 45.574219 20.535156 45.457031 L 21.8125 44.613281 Z M 25.347656 52.636719 L 18.277344 52.636719 C 17.988281 52.636719 17.699219 52.609375 17.414062 52.554688 C 17.132812 52.5 16.855469 52.414062 16.585938 52.304688 C 16.316406 52.195312 16.0625 52.058594 15.820312 51.898438 C 15.582031 51.738281 15.359375 51.554688 15.152344 51.351562 C 14.945312 51.148438 14.765625 50.925781 14.601562 50.6875 C 14.441406 50.445312 14.304688 50.191406 14.195312 49.925781 C 14.082031 49.660156 14 49.382812 13.945312 49.101562 C 13.886719 48.816406 13.859375 48.53125 13.859375 48.242188 L 21.8125 48.242188 C 21.8125 48.59375 21.878906 48.929688 22.015625 49.253906 C 22.148438 49.574219 22.339844 49.859375 22.589844 50.109375 C 22.839844 50.355469 23.125 50.546875 23.449219 50.679688 C 23.773438 50.8125 24.113281 50.878906 24.464844 50.878906 C 24.816406 50.878906 25.15625 50.8125 25.480469 50.679688 C 25.804688 50.546875 26.089844 50.355469 26.339844 50.109375 C 26.589844 49.859375 26.78125 49.574219 26.914062 49.253906 C 27.046875 48.929688 27.117188 48.59375 27.117188 48.242188 L 27.117188 48.09375 C 27.574219 48.253906 28.039062 48.285156 28.515625 48.191406 C 28.992188 48.09375 29.410156 47.882812 29.765625 47.558594 L 29.765625 48.242188 C 29.765625 48.53125 29.738281 48.816406 29.679688 49.101562 C 29.625 49.382812 29.539062 49.65625 29.429688 49.925781 C 29.320312 50.191406 29.183594 50.445312 29.019531 50.683594 C 28.859375 50.921875 28.675781 51.144531 28.472656 51.347656 C 28.265625 51.554688 28.042969 51.734375 27.800781 51.894531 C 27.5625 52.054688 27.304688 52.191406 27.039062 52.300781 C 26.769531 52.414062 26.496094 52.496094 26.210938 52.550781 C 25.925781 52.609375 25.636719 52.636719 25.347656 52.636719 Z M 30.5 46.449219 C 30.597656 46.175781 30.648438 45.894531 30.652344 45.605469 L 30.652344 43.929688 C 30.929688 44.027344 31.152344 44.195312 31.316406 44.441406 C 31.476562 44.683594 31.550781 44.953125 31.535156 45.246094 C 31.515625 45.539062 31.410156 45.796875 31.21875 46.019531 C 31.027344 46.246094 30.789062 46.386719 30.5 46.449219 Z M 18.277344 35.058594 L 25.347656 35.058594 C 25.636719 35.058594 25.925781 35.089844 26.210938 35.144531 C 26.496094 35.203125 26.769531 35.285156 27.039062 35.394531 C 27.304688 35.507812 27.5625 35.640625 27.800781 35.800781 C 28.042969 35.960938 28.265625 36.144531 28.472656 36.347656 C 28.675781 36.550781 28.859375 36.773438 29.019531 37.015625 C 29.183594 37.253906 29.320312 37.507812 29.429688 37.773438 C 29.539062 38.039062 29.625 38.3125 29.679688 38.597656 C 29.738281 38.878906 29.765625 39.164062 29.765625 39.453125 L 20.046875 39.453125 C 19.800781 39.453125 19.59375 39.539062 19.421875 39.710938 C 19.25 39.882812 19.164062 40.089844 19.164062 40.332031 C 19.164062 40.574219 19.25 40.78125 19.421875 40.953125 C 19.59375 41.125 19.800781 41.210938 20.046875 41.210938 L 31.535156 41.210938 L 31.535156 41.222656 C 31.332031 41.25 31.136719 41.308594 30.953125 41.398438 C 30.902344 41.425781 30.855469 41.453125 30.8125 41.488281 L 27.464844 44.03125 C 27.269531 44.179688 27.15625 44.371094 27.125 44.613281 C 27.09375 44.855469 27.148438 45.070312 27.296875 45.261719 C 27.445312 45.457031 27.640625 45.570312 27.882812 45.601562 C 28.125 45.632812 28.34375 45.574219 28.535156 45.429688 L 28.882812 45.167969 L 28.882812 45.605469 C 28.882812 45.847656 28.796875 46.054688 28.625 46.226562 C 28.453125 46.398438 28.242188 46.484375 28 46.484375 C 27.753906 46.484375 27.546875 46.398438 27.375 46.226562 C 27.203125 46.054688 27.117188 45.847656 27.117188 45.605469 C 27.117188 45.363281 27.03125 45.15625 26.855469 44.984375 C 26.683594 44.8125 26.476562 44.726562 26.230469 44.726562 C 25.988281 44.726562 25.78125 44.8125 25.605469 44.984375 C 25.433594 45.15625 25.347656 45.363281 25.347656 45.605469 L 25.347656 48.242188 C 25.347656 48.484375 25.261719 48.691406 25.089844 48.863281 C 24.917969 49.035156 24.707031 49.121094 24.464844 49.121094 C 24.222656 49.121094 24.011719 49.035156 23.839844 48.863281 C 23.667969 48.691406 23.582031 48.484375 23.582031 48.242188 L 23.582031 45.199219 L 25.347656 44.023438 L 25.484375 44.113281 C 25.6875 44.246094 25.90625 44.289062 26.148438 44.242188 C 26.386719 44.195312 26.574219 44.070312 26.710938 43.867188 C 26.84375 43.667969 26.890625 43.445312 26.839844 43.207031 C 26.792969 42.972656 26.667969 42.785156 26.464844 42.648438 L 25.839844 42.234375 C 25.691406 42.136719 25.527344 42.085938 25.347656 42.085938 C 25.171875 42.085938 25.007812 42.136719 24.859375 42.234375 L 23.582031 43.085938 L 23.582031 42.96875 C 23.582031 42.617188 23.425781 42.359375 23.113281 42.195312 C 22.804688 42.027344 22.5 42.042969 22.207031 42.238281 L 20.15625 43.597656 L 18.902344 42.347656 C 18.753906 42.199219 18.574219 42.117188 18.367188 42.09375 C 18.15625 42.074219 17.964844 42.121094 17.789062 42.238281 L 15.65625 43.652344 L 12.859375 41.5625 C 12.628906 41.394531 12.375 41.285156 12.09375 41.238281 L 16.511719 41.210938 C 16.753906 41.210938 16.964844 41.125 17.136719 40.953125 C 17.308594 40.78125 17.394531 40.574219 17.394531 40.332031 C 17.394531 40.089844 17.308594 39.882812 17.136719 39.710938 C 16.964844 39.539062 16.753906 39.453125 16.511719 39.453125 L 13.859375 39.453125 C 13.859375 39.164062 13.886719 38.878906 13.945312 38.597656 C 14.003906 38.3125 14.085938 38.039062 14.199219 37.773438 C 14.308594 37.507812 14.445312 37.253906 14.605469 37.015625 C 14.765625 36.773438 14.949219 36.550781 15.15625 36.347656 C 15.359375 36.144531 15.582031 35.960938 15.824219 35.800781 C 16.066406 35.640625 16.320312 35.507812 16.589844 35.394531 C 16.855469 35.285156 17.132812 35.203125 17.417969 35.144531 C 17.699219 35.089844 17.988281 35.058594 18.277344 35.058594 Z M 18.277344 35.058594 " fill-opacity="1" fill-rule="nonzero"/><path fill="#333333" d="M 17.394531 38.574219 C 17.636719 38.574219 17.847656 38.488281 18.019531 38.316406 C 18.191406 38.144531 18.277344 37.9375 18.277344 37.695312 C 18.277344 37.453125 18.191406 37.246094 18.019531 37.074219 C 17.847656 36.902344 17.636719 36.816406 17.394531 36.816406 L 16.511719 36.816406 C 16.265625 36.816406 16.058594 36.902344 15.886719 37.074219 C 15.714844 37.246094 15.628906 37.453125 15.628906 37.695312 C 15.628906 37.9375 15.714844 38.144531 15.886719 38.316406 C 16.058594 38.488281 16.265625 38.574219 16.511719 38.574219 Z M 17.394531 38.574219 " fill-opacity="1" fill-rule="nonzero"/><path fill="#333333" d="M 20.929688 38.574219 L 22.695312 38.574219 C 22.941406 38.574219 23.148438 38.488281 23.320312 38.316406 C 23.496094 38.144531 23.582031 37.9375 23.582031 37.695312 C 23.582031 37.453125 23.496094 37.246094 23.320312 37.074219 C 23.148438 36.902344 22.941406 36.816406 22.695312 36.816406 L 20.929688 36.816406 C 20.6875 36.816406 20.476562 36.902344 20.304688 37.074219 C 20.132812 37.246094 20.046875 37.453125 20.046875 37.695312 C 20.046875 37.9375 20.132812 38.144531 20.304688 38.316406 C 20.476562 38.488281 20.6875 38.574219 20.929688 38.574219 Z M 20.929688 38.574219 " fill-opacity="1" fill-rule="nonzero"/><path fill="#333333" d="M 26.230469 38.574219 L 27.117188 38.574219 C 27.359375 38.574219 27.570312 38.488281 27.742188 38.316406 C 27.914062 38.144531 28 37.9375 28 37.695312 C 28 37.453125 27.914062 37.246094 27.742188 37.074219 C 27.570312 36.902344 27.359375 36.816406 27.117188 36.816406 L 26.230469 36.816406 C 25.988281 36.816406 25.78125 36.902344 25.605469 37.074219 C 25.433594 37.246094 25.347656 37.453125 25.347656 37.695312 C 25.347656 37.9375 25.433594 38.144531 25.605469 38.316406 C 25.78125 38.488281 25.988281 38.574219 26.230469 38.574219 Z M 26.230469 38.574219 " fill-opacity="1" fill-rule="nonzero"/><path fill="#333333" d="M 19.164062 32.421875 C 19.40625 32.421875 19.613281 32.335938 19.785156 32.164062 C 19.960938 31.992188 20.046875 31.785156 20.046875 31.542969 L 20.046875 28.027344 C 20.046875 27.785156 19.960938 27.578125 19.785156 27.40625 C 19.613281 27.234375 19.40625 27.148438 19.164062 27.148438 C 18.917969 27.148438 18.710938 27.234375 18.539062 27.40625 C 18.363281 27.578125 18.277344 27.785156 18.277344 28.027344 L 18.277344 31.542969 C 18.277344 31.785156 18.363281 31.992188 18.539062 32.164062 C 18.710938 32.335938 18.917969 32.421875 19.164062 32.421875 Z M 19.164062 32.421875 " fill-opacity="1" fill-rule="nonzero"/><path fill="#333333" d="M 23.570312 32.421875 C 23.960938 32.425781 24.234375 32.25 24.390625 31.890625 C 24.542969 31.535156 24.488281 31.214844 24.214844 30.9375 C 24.199219 30.917969 22.695312 29.257812 22.695312 24.511719 C 22.695312 24.269531 22.609375 24.0625 22.4375 23.890625 C 22.265625 23.71875 22.058594 23.632812 21.8125 23.632812 C 21.570312 23.632812 21.359375 23.71875 21.1875 23.890625 C 21.015625 24.0625 20.929688 24.269531 20.929688 24.511719 C 20.929688 29.992188 22.75 31.960938 22.957031 32.164062 C 23.125 32.335938 23.332031 32.421875 23.570312 32.421875 Z M 23.570312 32.421875 " fill-opacity="1" fill-rule="nonzero"/><g clip-path="url(#a04f51ca1d)"><path fill="#333333" d="M 45.675781 0.78125 L 6.789062 0.78125 C 6.546875 0.78125 6.335938 0.867188 6.164062 1.039062 C 5.992188 1.210938 5.90625 1.417969 5.90625 1.660156 L 5.90625 7.679688 L 1.527344 21.613281 C 1.5 21.699219 1.488281 21.785156 1.488281 21.875 L 1.488281 56.152344 C 1.488281 56.394531 1.574219 56.601562 1.746094 56.773438 C 1.917969 56.945312 2.125 57.03125 2.371094 57.03125 L 50.09375 57.03125 C 50.339844 57.03125 50.546875 56.945312 50.71875 56.773438 C 50.890625 56.601562 50.976562 56.394531 50.976562 56.152344 L 50.976562 21.875 C 50.976562 21.785156 50.964844 21.699219 50.9375 21.613281 L 46.558594 7.679688 L 46.558594 1.660156 C 46.558594 1.417969 46.472656 1.210938 46.300781 1.039062 C 46.128906 0.867188 45.917969 0.78125 45.675781 0.78125 Z M 44.792969 2.539062 L 44.792969 6.933594 L 7.671875 6.933594 L 7.671875 2.539062 Z M 40.371094 55.273438 L 3.253906 55.273438 L 3.253906 22.753906 L 9.699219 22.753906 C 9.941406 22.753906 10.152344 22.667969 10.324219 22.496094 C 10.496094 22.324219 10.582031 22.117188 10.582031 21.875 C 10.582031 21.632812 10.496094 21.425781 10.324219 21.253906 C 10.152344 21.082031 9.941406 20.996094 9.699219 20.996094 L 3.574219 20.996094 L 7.4375 8.691406 L 44.472656 8.691406 L 40.605469 20.996094 L 12.976562 20.996094 C 12.730469 20.996094 12.523438 21.082031 12.351562 21.253906 C 12.179688 21.425781 12.09375 21.632812 12.09375 21.875 C 12.09375 22.117188 12.179688 22.324219 12.351562 22.496094 C 12.523438 22.667969 12.730469 22.753906 12.976562 22.753906 L 40.371094 22.753906 Z M 49.210938 53.726562 L 46.558594 50.5625 L 46.558594 25.390625 C 46.558594 25.148438 46.472656 24.941406 46.300781 24.769531 C 46.128906 24.597656 45.917969 24.511719 45.675781 24.511719 C 45.429688 24.511719 45.222656 24.597656 45.050781 24.769531 C 44.878906 24.941406 44.792969 25.148438 44.792969 25.390625 L 44.792969 50.5625 L 42.140625 53.726562 L 42.140625 22.753906 L 49.210938 22.753906 Z M 45.675781 52.253906 L 48.207031 55.273438 L 43.144531 55.273438 Z M 48.890625 20.996094 L 42.457031 20.996094 L 45.675781 10.757812 Z M 48.890625 20.996094 " fill-opacity="1" fill-rule="nonzero"/></g><g fill="#f08616" fill-opacity="1"><g transform="translate(0, 72.373958)"><g><path d="M 8.28125 -10.84375 L 8.28125 -9.046875 L 3.546875 -9.046875 L 3.546875 -6.171875 L 7.84375 -6.171875 L 7.84375 -4.40625 L 3.546875 -4.40625 L 3.546875 0 L 1.40625 0 L 1.40625 -10.84375 Z M 8.28125 -10.84375 "/></g></g></g><g fill="#f08616" fill-opacity="1"><g transform="translate(8.765441, 72.373958)"><g><path d="M 4.75 0.15625 C 3.945312 0.15625 3.242188 -0.00390625 2.640625 -0.328125 C 2.035156 -0.660156 1.566406 -1.144531 1.234375 -1.78125 C 0.898438 -2.414062 0.734375 -3.1875 0.734375 -4.09375 C 0.734375 -4.988281 0.898438 -5.753906 1.234375 -6.390625 C 1.566406 -7.023438 2.035156 -7.503906 2.640625 -7.828125 C 3.242188 -8.160156 3.945312 -8.328125 4.75 -8.328125 C 5.550781 -8.328125 6.253906 -8.160156 6.859375 -7.828125 C 7.460938 -7.503906 7.929688 -7.023438 8.265625 -6.390625 C 8.609375 -5.753906 8.78125 -4.988281 8.78125 -4.09375 C 8.78125 -3.1875 8.609375 -2.414062 8.265625 -1.78125 C 7.929688 -1.144531 7.460938 -0.660156 6.859375 -0.328125 C 6.253906 -0.00390625 5.550781 0.15625 4.75 0.15625 Z M 4.75 -1.59375 C 6.019531 -1.59375 6.65625 -2.425781 6.65625 -4.09375 C 6.65625 -4.957031 6.492188 -5.585938 6.171875 -5.984375 C 5.847656 -6.390625 5.375 -6.59375 4.75 -6.59375 C 3.476562 -6.59375 2.84375 -5.757812 2.84375 -4.09375 C 2.84375 -2.425781 3.476562 -1.59375 4.75 -1.59375 Z M 4.75 -1.59375 "/></g></g></g><g fill="#f08616" fill-opacity="1"><g transform="translate(18.27246, 72.373958)"><g><path d="M 4.75 0.15625 C 3.945312 0.15625 3.242188 -0.00390625 2.640625 -0.328125 C 2.035156 -0.660156 1.566406 -1.144531 1.234375 -1.78125 C 0.898438 -2.414062 0.734375 -3.1875 0.734375 -4.09375 C 0.734375 -4.988281 0.898438 -5.753906 1.234375 -6.390625 C 1.566406 -7.023438 2.035156 -7.503906 2.640625 -7.828125 C 3.242188 -8.160156 3.945312 -8.328125 4.75 -8.328125 C 5.550781 -8.328125 6.253906 -8.160156 6.859375 -7.828125 C 7.460938 -7.503906 7.929688 -7.023438 8.265625 -6.390625 C 8.609375 -5.753906 8.78125 -4.988281 8.78125 -4.09375 C 8.78125 -3.1875 8.609375 -2.414062 8.265625 -1.78125 C 7.929688 -1.144531 7.460938 -0.660156 6.859375 -0.328125 C 6.253906 -0.00390625 5.550781 0.15625 4.75 0.15625 Z M 4.75 -1.59375 C 6.019531 -1.59375 6.65625 -2.425781 6.65625 -4.09375 C 6.65625 -4.957031 6.492188 -5.585938 6.171875 -5.984375 C 5.847656 -6.390625 5.375 -6.59375 4.75 -6.59375 C 3.476562 -6.59375 2.84375 -5.757812 2.84375 -4.09375 C 2.84375 -2.425781 3.476562 -1.59375 4.75 -1.59375 Z M 4.75 -1.59375 "/></g></g></g><g fill="#f08616" fill-opacity="1"><g transform="translate(27.779478, 72.373958)"><g><path d="M 4.046875 0.15625 C 3.390625 0.15625 2.8125 0 2.3125 -0.3125 C 1.820312 -0.625 1.4375 -1.097656 1.15625 -1.734375 C 0.875 -2.367188 0.734375 -3.15625 0.734375 -4.09375 C 0.734375 -5.019531 0.878906 -5.800781 1.171875 -6.4375 C 1.460938 -7.070312 1.863281 -7.546875 2.375 -7.859375 C 2.882812 -8.171875 3.472656 -8.328125 4.140625 -8.328125 C 4.648438 -8.328125 5.09375 -8.238281 5.46875 -8.0625 C 5.84375 -7.894531 6.160156 -7.625 6.421875 -7.25 L 6.578125 -7.296875 L 6.578125 -11.46875 L 8.625 -11.46875 L 8.625 0 L 6.578125 0 L 6.578125 -1.0625 L 6.421875 -1.09375 C 6.191406 -0.707031 5.878906 -0.398438 5.484375 -0.171875 C 5.085938 0.046875 4.609375 0.15625 4.046875 0.15625 Z M 4.703125 -1.59375 C 5.285156 -1.59375 5.742188 -1.796875 6.078125 -2.203125 C 6.410156 -2.617188 6.578125 -3.25 6.578125 -4.09375 C 6.578125 -4.925781 6.410156 -5.550781 6.078125 -5.96875 C 5.742188 -6.382812 5.285156 -6.59375 4.703125 -6.59375 C 4.097656 -6.59375 3.632812 -6.390625 3.3125 -5.984375 C 3 -5.585938 2.84375 -4.957031 2.84375 -4.09375 C 2.84375 -3.226562 3 -2.59375 3.3125 -2.1875 C 3.632812 -1.789062 4.097656 -1.59375 4.703125 -1.59375 Z M 4.703125 -1.59375 "/></g></g></g><g fill="#f08616" fill-opacity="1"><g transform="translate(37.583127, 72.373958)"><g><path d="M 2.203125 -9.15625 C 1.828125 -9.15625 1.523438 -9.265625 1.296875 -9.484375 C 1.066406 -9.710938 0.953125 -10.007812 0.953125 -10.375 C 0.953125 -10.71875 1.066406 -11 1.296875 -11.21875 C 1.523438 -11.445312 1.828125 -11.5625 2.203125 -11.5625 C 2.453125 -11.5625 2.671875 -11.507812 2.859375 -11.40625 C 3.054688 -11.300781 3.207031 -11.160156 3.3125 -10.984375 C 3.414062 -10.804688 3.46875 -10.601562 3.46875 -10.375 C 3.46875 -10.132812 3.414062 -9.921875 3.3125 -9.734375 C 3.207031 -9.554688 3.054688 -9.414062 2.859375 -9.3125 C 2.671875 -9.207031 2.453125 -9.15625 2.203125 -9.15625 Z M 1.171875 0 L 1.171875 -8.171875 L 3.234375 -8.171875 L 3.234375 0 Z M 1.171875 0 "/></g></g></g><g fill="#f08616" fill-opacity="1"><g transform="translate(41.988095, 72.373958)"><g><path d="M 8.078125 -3.625 L 2.828125 -3.625 C 2.890625 -2.914062 3.09375 -2.398438 3.4375 -2.078125 C 3.78125 -1.753906 4.25 -1.59375 4.84375 -1.59375 C 5.3125 -1.59375 5.691406 -1.675781 5.984375 -1.84375 C 6.273438 -2.019531 6.515625 -2.285156 6.703125 -2.640625 L 6.859375 -2.640625 L 8.21875 -1.765625 C 7.945312 -1.191406 7.539062 -0.726562 7 -0.375 C 6.46875 -0.0195312 5.75 0.15625 4.84375 0.15625 C 4 0.15625 3.269531 -0.00390625 2.65625 -0.328125 C 2.039062 -0.648438 1.566406 -1.128906 1.234375 -1.765625 C 0.898438 -2.398438 0.734375 -3.175781 0.734375 -4.09375 C 0.734375 -5.019531 0.90625 -5.800781 1.25 -6.4375 C 1.601562 -7.070312 2.078125 -7.546875 2.671875 -7.859375 C 3.273438 -8.171875 3.953125 -8.328125 4.703125 -8.328125 C 5.859375 -8.328125 6.742188 -8.019531 7.359375 -7.40625 C 7.972656 -6.800781 8.28125 -5.90625 8.28125 -4.71875 C 8.28125 -4.289062 8.265625 -3.957031 8.234375 -3.71875 Z M 6.3125 -4.953125 C 6.289062 -5.578125 6.144531 -6.03125 5.875 -6.3125 C 5.613281 -6.59375 5.222656 -6.734375 4.703125 -6.734375 C 3.660156 -6.734375 3.050781 -6.140625 2.875 -4.953125 Z M 6.3125 -4.953125 "/></g></g></g></svg>