<svg xmlns="http://www.w3.org/2000/svg" xmlns:xlink="http://www.w3.org/1999/xlink" width="150" zoomAndPan="magnify" viewBox="0 0 112.5 112.499997" height="150" preserveAspectRatio="xMidYMid meet" version="1.0"><defs><clipPath id="17f77b87d9"><path d="M 0 0 L 112.003906 0 L 112.003906 112.003906 L 0 112.003906 Z M 0 0 " clip-rule="nonzero"/></clipPath><clipPath id="3942b94411"><path d="M 14 1 L 98 1 L 98 112.003906 L 14 112.003906 Z M 14 1 " clip-rule="nonzero"/></clipPath></defs><g clip-path="url(#17f77b87d9)"><path fill="#ffffff" d="M 0 0 L 112.5 0 L 112.5 120 L 0 120 Z M 0 0 " fill-opacity="1" fill-rule="nonzero"/><path fill="#ffffff" d="M 0 0 L 112.5 0 L 112.5 112.5 L 0 112.5 Z M 0 0 " fill-opacity="1" fill-rule="nonzero"/><path fill="#d9d9d9" d="M 0 0 L 112.5 0 L 112.5 112.5 L 0 112.5 Z M 0 0 " fill-opacity="1" fill-rule="nonzero"/></g><path fill="#000000" d="M 43.210938 72.800781 C 43.558594 72.800781 44.078125 72.714844 44.597656 72.628906 L 44.597656 63.984375 L 47.285156 63.984375 C 47.371094 63.554688 47.371094 63.121094 47.371094 62.777344 C 47.371094 62.601562 47.371094 62.429688 47.371094 62.257812 C 47.371094 62.085938 47.285156 61.824219 47.285156 61.652344 L 39.136719 61.652344 C 39.046875 62.085938 38.960938 62.515625 38.960938 62.863281 C 38.960938 63.207031 39.046875 63.640625 39.136719 64.070312 L 41.824219 64.070312 L 41.824219 72.714844 C 42.34375 72.800781 42.777344 72.800781 43.210938 72.800781 Z M 43.210938 72.800781 " fill-opacity="1" fill-rule="nonzero"/><path fill="#000000" d="M 56.390625 72.714844 L 52.835938 61.738281 C 52.488281 61.738281 52.230469 61.652344 51.96875 61.652344 C 51.707031 61.652344 51.535156 61.652344 51.273438 61.652344 C 51.015625 61.652344 50.753906 61.652344 50.582031 61.652344 C 50.40625 61.652344 50.0625 61.738281 49.800781 61.738281 L 46.246094 72.714844 C 46.59375 72.800781 46.851562 72.800781 47.113281 72.800781 C 47.371094 72.800781 47.546875 72.800781 47.804688 72.800781 C 48.066406 72.800781 48.238281 72.800781 48.414062 72.800781 C 48.585938 72.800781 48.847656 72.714844 49.105469 72.714844 L 49.714844 70.640625 C 49.972656 70.726562 50.234375 70.726562 50.496094 70.8125 C 50.753906 70.8125 51.015625 70.898438 51.273438 70.898438 C 51.535156 70.898438 51.796875 70.898438 52.054688 70.8125 C 52.316406 70.8125 52.574219 70.726562 52.921875 70.640625 L 53.527344 72.800781 C 53.789062 72.800781 53.960938 72.886719 54.222656 72.886719 C 54.394531 72.886719 54.65625 72.886719 54.828125 72.886719 C 55.261719 72.800781 55.785156 72.800781 56.390625 72.714844 Z M 51.796875 68.652344 C 51.621094 68.652344 51.449219 68.652344 51.273438 68.652344 C 51.101562 68.652344 50.929688 68.652344 50.753906 68.566406 C 50.582031 68.566406 50.40625 68.480469 50.234375 68.480469 L 51.273438 64.503906 L 52.316406 68.480469 C 52.140625 68.652344 51.96875 68.652344 51.796875 68.652344 Z M 51.796875 68.652344 " fill-opacity="1" fill-rule="nonzero"/><path fill="#000000" d="M 60.292969 72.714844 L 60.292969 61.738281 C 60.03125 61.738281 59.773438 61.652344 59.511719 61.652344 C 59.253906 61.652344 59.078125 61.652344 58.90625 61.652344 C 58.730469 61.652344 58.472656 61.652344 58.296875 61.652344 C 58.039062 61.652344 57.777344 61.738281 57.519531 61.738281 L 57.519531 72.714844 C 58.039062 72.800781 58.558594 72.886719 58.90625 72.886719 C 59.253906 72.800781 59.773438 72.800781 60.292969 72.714844 Z M 60.292969 72.714844 " fill-opacity="1" fill-rule="nonzero"/><path fill="#000000" d="M 65.929688 72.800781 C 66.277344 72.800781 66.449219 72.714844 66.621094 72.714844 L 63.585938 67.011719 L 66.363281 61.738281 C 66.277344 61.738281 66.1875 61.738281 66.015625 61.738281 C 65.84375 61.738281 65.753906 61.738281 65.582031 61.652344 C 65.410156 61.652344 65.320312 61.652344 65.148438 61.652344 C 64.976562 61.652344 64.886719 61.652344 64.714844 61.652344 C 64.453125 61.652344 64.195312 61.652344 64.019531 61.652344 C 63.761719 61.652344 63.5 61.738281 63.152344 61.738281 L 60.550781 67.183594 L 63.5 72.714844 C 63.675781 72.714844 63.933594 72.800781 64.28125 72.800781 C 64.542969 72.800781 64.886719 72.800781 65.148438 72.800781 C 65.320312 72.800781 65.582031 72.800781 65.929688 72.800781 Z M 65.929688 72.800781 " fill-opacity="1" fill-rule="nonzero"/><path fill="#000000" d="M 70.4375 70.382812 L 70.4375 68.222656 L 73.558594 68.222656 C 73.644531 67.789062 73.734375 67.355469 73.734375 67.011719 C 73.734375 66.664062 73.644531 66.234375 73.558594 65.800781 L 70.4375 65.800781 L 70.4375 64.070312 L 74.339844 64.070312 C 74.425781 63.640625 74.425781 63.207031 74.425781 62.863281 C 74.425781 62.6875 74.425781 62.515625 74.425781 62.34375 C 74.425781 62.171875 74.339844 61.910156 74.339844 61.738281 L 67.574219 61.738281 L 67.574219 72.800781 L 74.425781 72.800781 C 74.511719 72.371094 74.597656 71.9375 74.597656 71.589844 C 74.597656 71.246094 74.511719 70.8125 74.425781 70.382812 Z M 70.4375 70.382812 " fill-opacity="1" fill-rule="nonzero"/><path fill="#000000" d="M 51.796875 81.617188 C 51.363281 81.097656 50.839844 80.667969 50.234375 80.40625 C 49.628906 80.148438 48.847656 79.976562 47.980469 79.976562 C 47.113281 79.976562 46.332031 80.148438 45.726562 80.40625 C 45.117188 80.667969 44.597656 81.097656 44.164062 81.617188 C 43.730469 82.136719 43.472656 82.742188 43.210938 83.433594 C 43.039062 84.125 42.949219 84.902344 42.949219 85.679688 C 42.949219 86.457031 43.039062 87.234375 43.210938 87.925781 C 43.382812 88.617188 43.730469 89.222656 44.164062 89.742188 C 44.597656 90.261719 45.117188 90.605469 45.726562 90.953125 C 46.332031 91.210938 47.113281 91.382812 47.980469 91.382812 C 48.847656 91.382812 49.628906 91.210938 50.234375 90.953125 C 50.839844 90.691406 51.363281 90.261719 51.796875 89.742188 C 52.230469 89.222656 52.488281 88.617188 52.75 87.925781 C 52.921875 87.234375 53.007812 86.457031 53.007812 85.679688 C 53.007812 84.902344 52.921875 84.125 52.75 83.433594 C 52.488281 82.742188 52.140625 82.136719 51.796875 81.617188 Z M 47.980469 89.050781 C 47.285156 89.050781 46.765625 88.792969 46.417969 88.1875 C 46.070312 87.667969 45.898438 86.804688 45.898438 85.679688 C 45.898438 83.433594 46.59375 82.308594 47.980469 82.308594 C 49.367188 82.308594 49.972656 83.433594 49.972656 85.679688 C 49.972656 87.925781 49.28125 89.050781 47.980469 89.050781 Z M 47.980469 89.050781 " fill-opacity="1" fill-rule="nonzero"/><path fill="#000000" d="M 61.941406 80.0625 C 61.765625 80.0625 61.59375 80.0625 61.332031 80.0625 C 61.074219 80.0625 60.8125 80.148438 60.550781 80.148438 L 60.550781 86.113281 C 60.550781 86.628906 60.550781 87.0625 60.464844 87.410156 C 60.464844 87.753906 60.378906 88.101562 60.207031 88.273438 C 60.117188 88.53125 59.945312 88.617188 59.6875 88.792969 C 59.425781 88.964844 59.164062 88.964844 58.90625 88.964844 C 58.558594 88.964844 58.296875 88.878906 58.125 88.792969 C 57.953125 88.703125 57.777344 88.53125 57.691406 88.273438 C 57.605469 88.011719 57.519531 87.753906 57.429688 87.410156 C 57.429688 87.0625 57.34375 86.628906 57.34375 86.113281 L 57.34375 80.148438 C 56.996094 80.148438 56.738281 80.0625 56.5625 80.0625 C 56.304688 80.0625 56.128906 80.0625 55.957031 80.0625 C 55.785156 80.0625 55.523438 80.0625 55.351562 80.0625 C 55.089844 80.0625 54.828125 80.148438 54.570312 80.148438 L 54.570312 86.457031 C 54.570312 87.234375 54.65625 87.925781 54.742188 88.53125 C 54.917969 89.136719 55.089844 89.65625 55.4375 90.089844 C 55.785156 90.519531 56.21875 90.867188 56.824219 91.039062 C 57.429688 91.296875 58.125 91.382812 58.992188 91.382812 C 59.859375 91.382812 60.550781 91.296875 61.160156 91.039062 C 61.765625 90.78125 62.199219 90.519531 62.546875 90.089844 C 62.894531 89.65625 63.152344 89.136719 63.242188 88.53125 C 63.414062 87.925781 63.414062 87.234375 63.414062 86.457031 L 63.414062 80.148438 C 63.066406 80.148438 62.808594 80.0625 62.632812 80.0625 C 62.460938 80.0625 62.113281 80.0625 61.941406 80.0625 Z M 61.941406 80.0625 " fill-opacity="1" fill-rule="nonzero"/><path fill="#000000" d="M 72.867188 80.148438 L 64.714844 80.148438 C 64.628906 80.582031 64.542969 81.011719 64.542969 81.359375 C 64.542969 81.703125 64.628906 82.136719 64.714844 82.570312 L 67.402344 82.570312 L 67.402344 91.210938 C 67.921875 91.296875 68.441406 91.382812 68.789062 91.382812 C 69.136719 91.382812 69.65625 91.296875 70.175781 91.210938 L 70.175781 82.570312 L 72.867188 82.570312 C 72.953125 82.136719 72.953125 81.703125 72.953125 81.359375 C 72.953125 81.183594 72.953125 81.011719 72.953125 80.839844 C 72.867188 80.582031 72.867188 80.320312 72.867188 80.148438 Z M 72.867188 80.148438 " fill-opacity="1" fill-rule="nonzero"/><g clip-path="url(#3942b94411)"><path fill="#000000" d="M 96.710938 12.644531 C 95.757812 9.535156 94.109375 7.371094 91.769531 6.335938 C 91.59375 6.25 91.507812 6.078125 91.335938 5.988281 C 83.703125 1.496094 77.894531 3.3125 75.121094 4.78125 C 73.820312 5.472656 73.039062 6.679688 72.953125 8.0625 C 72.257812 10.050781 68.355469 22.757812 69.050781 37.277344 C 69.050781 38.230469 68.617188 39.179688 64.976562 40.476562 C 60.640625 41.945312 52.921875 41.945312 47.71875 40.476562 C 47.460938 40.390625 47.113281 40.304688 46.851562 40.21875 C 49.019531 30.796875 47.71875 8.582031 38.527344 4.605469 C 38.441406 4.519531 38.355469 4.433594 38.269531 4.433594 C 32.980469 0.285156 24.480469 0.71875 20.40625 5.296875 C 19.800781 5.988281 19.453125 6.941406 19.367188 7.804688 C 19.105469 9.273438 17.371094 21.289062 21.011719 37.539062 C 21.535156 39.871094 21.359375 42.203125 20.578125 44.367188 C 12.515625 65.453125 14.769531 102.359375 14.945312 105.214844 C 14.855469 106.941406 15.464844 108.585938 16.675781 109.96875 C 17.976562 111.351562 19.886719 112.214844 21.878906 112.214844 L 90.207031 112.214844 C 92.203125 112.214844 94.109375 111.4375 95.410156 109.96875 C 96.625 108.671875 97.230469 107.027344 97.144531 105.300781 C 97.402344 102.535156 100.265625 70.726562 91.160156 46.179688 C 94.542969 40.476562 99.570312 22.5 96.710938 12.644531 Z M 89.511719 41.773438 C 89.425781 41.6875 89.425781 41.511719 89.339844 41.425781 C 87.953125 33.734375 91.421875 17.832031 92.808594 12.125 C 92.980469 12.558594 93.242188 13.078125 93.414062 13.683594 C 95.496094 21.117188 92.289062 35.03125 89.511719 41.773438 Z M 43.730469 38.230469 C 43.210938 37.710938 42.691406 37.105469 42.34375 36.414062 C 37.402344 26.820312 38.789062 14.199219 39.570312 9.621094 C 43.992188 15.324219 45.292969 30.363281 43.730469 38.230469 Z M 93.761719 104.953125 C 93.761719 105.039062 93.761719 105.128906 93.761719 105.214844 C 93.847656 106.078125 93.503906 106.855469 92.980469 107.460938 C 92.289062 108.152344 91.335938 108.585938 90.292969 108.585938 L 21.96875 108.585938 C 20.925781 108.585938 19.972656 108.152344 19.277344 107.460938 C 18.671875 106.855469 18.410156 106.078125 18.5 105.214844 C 18.5 105.128906 18.5 105.039062 18.5 104.953125 C 18.5 104.609375 15.984375 66.234375 23.875 45.488281 C 24.914062 42.722656 25.175781 39.699219 24.480469 36.671875 C 22.746094 28.894531 22.3125 22.066406 22.3125 17.054688 L 29.335938 15.84375 C 30.292969 15.671875 30.898438 14.804688 30.726562 13.855469 C 30.550781 12.90625 29.683594 12.300781 28.730469 12.472656 L 22.402344 13.507812 C 22.574219 10.140625 22.921875 8.238281 22.921875 8.152344 C 22.921875 8.0625 22.921875 7.976562 22.921875 7.890625 C 22.921875 7.71875 23.007812 7.546875 23.09375 7.460938 C 24.480469 5.816406 27.082031 4.867188 29.769531 4.867188 C 31.9375 4.867188 34.28125 5.472656 36.101562 6.941406 C 36.273438 7.027344 36.359375 7.199219 36.359375 7.371094 C 35.839844 9.707031 32.804688 25.695312 39.136719 37.96875 C 40.089844 39.871094 41.738281 41.425781 43.816406 42.550781 C 43.90625 42.550781 43.90625 42.636719 43.992188 42.636719 C 44.859375 43.070312 45.726562 43.414062 46.679688 43.761719 C 52.488281 45.402344 60.984375 45.402344 65.929688 43.761719 C 67.921875 43.070312 72.519531 41.511719 72.34375 37.191406 C 72.085938 30.105469 72.867188 23.277344 73.90625 18.175781 L 80.0625 17.140625 C 81.015625 16.96875 81.625 16.101562 81.449219 15.152344 C 81.277344 14.199219 80.410156 13.597656 79.457031 13.769531 L 74.6875 14.632812 C 75.464844 11.261719 76.160156 9.1875 76.160156 9.101562 C 76.246094 8.929688 76.246094 8.753906 76.246094 8.582031 C 76.246094 8.324219 76.421875 8.152344 76.679688 7.976562 C 78.847656 6.855469 83.269531 5.472656 89.425781 9.1875 C 89.601562 9.273438 89.773438 9.449219 89.773438 9.621094 C 89.082031 12.472656 83.964844 33.128906 85.957031 42.550781 C 86.046875 42.808594 86.132812 42.984375 86.21875 43.242188 C 97.402344 67.617188 93.847656 104.523438 93.761719 104.953125 Z M 93.761719 104.953125 " fill-opacity="1" fill-rule="nonzero"/></g></svg>