<svg xmlns="http://www.w3.org/2000/svg" xmlns:xlink="http://www.w3.org/1999/xlink" width="70" zoomAndPan="magnify" viewBox="0 0 52.5 74.999997" height="100" preserveAspectRatio="xMidYMid meet" version="1.0"><defs><g/><clipPath id="f2e123f248"><path d="M 0 0.355469 L 51.75 0.355469 L 51.75 61.855469 L 0 61.855469 Z M 0 0.355469 " clip-rule="nonzero"/></clipPath><clipPath id="625d9cc0db"><path d="M 0 63 L 8 63 L 8 74.644531 L 0 74.644531 Z M 0 63 " clip-rule="nonzero"/></clipPath><clipPath id="5b2b1ece83"><path d="M 8 66 L 18 66 L 18 74.644531 L 8 74.644531 Z M 8 66 " clip-rule="nonzero"/></clipPath><clipPath id="e2a9ef58e1"><path d="M 18 66 L 28 66 L 28 74.644531 L 18 74.644531 Z M 18 66 " clip-rule="nonzero"/></clipPath><clipPath id="bc09d9f6c0"><path d="M 28 62 L 38 62 L 38 74.644531 L 28 74.644531 Z M 28 62 " clip-rule="nonzero"/></clipPath><clipPath id="80b7df98eb"><path d="M 39 62 L 42 62 L 42 74.644531 L 39 74.644531 Z M 39 62 " clip-rule="nonzero"/></clipPath><clipPath id="bf9c4ac9bc"><path d="M 43 66 L 52 66 L 52 74.644531 L 43 74.644531 Z M 43 66 " clip-rule="nonzero"/></clipPath></defs><g clip-path="url(#f2e123f248)"><path fill="#7ed957" d="M 49.671875 56.730469 C 49.671875 58.417969 48.277344 59.804688 46.566406 59.804688 C 44.855469 59.804688 43.460938 58.417969 43.460938 56.730469 L 43.460938 17.746094 C 44.332031 18.402344 45.398438 18.804688 46.566406 18.804688 C 47.734375 18.804688 48.800781 18.402344 49.671875 17.746094 Z M 5.183594 59.804688 C 3.472656 59.804688 2.078125 58.417969 2.078125 56.730469 L 2.078125 14.703125 L 10.355469 14.703125 L 10.355469 18.988281 C 9.15625 19.421875 8.289062 20.546875 8.289062 21.878906 C 8.289062 23.570312 9.679688 24.953125 11.390625 24.953125 C 13.101562 24.953125 14.496094 23.570312 14.496094 21.878906 C 14.496094 20.546875 13.625 19.421875 12.425781 18.988281 L 12.425781 14.703125 L 31.046875 14.703125 L 31.046875 18.988281 C 29.847656 19.421875 28.980469 20.546875 28.980469 21.878906 C 28.980469 23.570312 30.371094 24.953125 32.082031 24.953125 C 33.792969 24.953125 35.1875 23.570312 35.1875 21.878906 C 35.1875 20.546875 34.316406 19.421875 33.117188 18.988281 L 33.117188 14.703125 L 41.394531 14.703125 L 41.394531 56.730469 C 41.394531 57.886719 41.796875 58.941406 42.460938 59.804688 Z M 11.390625 20.855469 C 11.960938 20.855469 12.425781 21.3125 12.425781 21.878906 C 12.425781 22.441406 11.960938 22.902344 11.390625 22.902344 C 10.820312 22.902344 10.355469 22.441406 10.355469 21.878906 C 10.355469 21.3125 10.820312 20.855469 11.390625 20.855469 Z M 12.425781 11.628906 C 12.425781 6.542969 16.605469 2.402344 21.738281 2.402344 C 21.964844 2.402344 22.195312 2.421875 22.410156 2.4375 C 19.5 4.484375 17.597656 7.835938 17.597656 11.628906 L 17.597656 12.652344 L 12.425781 12.652344 Z M 31.046875 11.628906 L 31.046875 12.652344 L 19.667969 12.652344 L 19.667969 11.628906 C 19.667969 7.816406 22.015625 4.539062 25.359375 3.132812 C 28.699219 4.539062 31.046875 7.816406 31.046875 11.628906 Z M 33.117188 21.878906 C 33.117188 22.441406 32.652344 22.902344 32.082031 22.902344 C 31.511719 22.902344 31.046875 22.441406 31.046875 21.878906 C 31.046875 21.3125 31.511719 20.855469 32.082031 20.855469 C 32.652344 20.855469 33.117188 21.3125 33.117188 21.878906 Z M 28.980469 2.402344 C 34.109375 2.402344 38.289062 6.542969 38.289062 11.628906 L 38.289062 12.652344 L 33.117188 12.652344 L 33.117188 11.628906 C 33.117188 7.835938 31.214844 4.484375 28.304688 2.4375 C 28.523438 2.421875 28.753906 2.402344 28.980469 2.402344 Z M 50.703125 12.652344 L 45.53125 12.652344 C 44.960938 12.652344 44.496094 13.113281 44.496094 13.679688 C 44.496094 14.242188 44.960938 14.703125 45.53125 14.703125 L 49.496094 14.703125 C 49.066406 15.894531 47.910156 16.753906 46.566406 16.753906 C 44.855469 16.753906 43.460938 15.367188 43.460938 13.679688 C 43.460938 13.113281 42.996094 12.652344 42.429688 12.652344 L 40.359375 12.652344 L 40.359375 11.628906 C 40.359375 5.40625 35.257812 0.355469 28.980469 0.355469 C 27.71875 0.355469 26.492188 0.570312 25.359375 0.949219 C 24.222656 0.570312 22.996094 0.355469 21.738281 0.355469 C 15.457031 0.355469 10.355469 5.40625 10.355469 11.628906 L 10.355469 12.652344 L 1.046875 12.652344 C 0.476562 12.652344 0.0117188 13.113281 0.0117188 13.679688 L 0.0117188 56.730469 C 0.0117188 59.558594 2.328125 61.855469 5.183594 61.855469 L 46.566406 61.855469 C 49.421875 61.855469 51.738281 59.558594 51.738281 56.730469 L 51.738281 13.679688 C 51.738281 13.113281 51.273438 12.652344 50.703125 12.652344 " fill-opacity="1" fill-rule="nonzero"/></g><path fill="#7ed957" d="M 36.21875 46.480469 L 7.253906 46.480469 C 6.683594 46.480469 6.21875 46.019531 6.21875 45.453125 C 6.21875 44.890625 6.683594 44.429688 7.253906 44.429688 L 36.21875 44.429688 C 36.789062 44.429688 37.253906 44.890625 37.253906 45.453125 C 37.253906 46.019531 36.789062 46.480469 36.21875 46.480469 Z M 31.441406 50.578125 L 12.035156 50.578125 L 11 48.527344 L 32.472656 48.527344 Z M 20.703125 32.128906 L 22.769531 32.128906 C 28.699219 32.128906 33.582031 36.636719 34.109375 42.378906 L 9.363281 42.378906 C 9.890625 36.636719 14.773438 32.128906 20.703125 32.128906 Z M 21.738281 28.027344 C 22.304688 28.027344 22.769531 28.488281 22.769531 29.054688 C 22.769531 29.617188 22.304688 30.078125 21.738281 30.078125 C 21.167969 30.078125 20.703125 29.617188 20.703125 29.054688 C 20.703125 28.488281 21.167969 28.027344 21.738281 28.027344 Z M 36.21875 42.378906 L 36.167969 42.378906 C 35.683594 36.117188 30.820312 31.0625 24.601562 30.222656 C 24.753906 29.855469 24.839844 29.460938 24.839844 29.054688 C 24.839844 27.363281 23.445312 25.980469 21.738281 25.980469 C 20.027344 25.980469 18.632812 27.363281 18.632812 29.054688 C 18.632812 29.460938 18.71875 29.855469 18.871094 30.222656 C 12.652344 31.0625 7.789062 36.117188 7.304688 42.378906 L 7.253906 42.378906 C 5.542969 42.378906 4.148438 43.765625 4.148438 45.453125 C 4.148438 47.144531 5.542969 48.527344 7.253906 48.527344 L 8.679688 48.527344 L 10.46875 52.0625 C 10.648438 52.414062 11 52.628906 11.390625 52.628906 L 32.082031 52.628906 C 32.472656 52.628906 32.824219 52.414062 33.003906 52.0625 L 34.792969 48.527344 L 36.21875 48.527344 C 37.929688 48.527344 39.324219 47.144531 39.324219 45.453125 C 39.324219 43.765625 37.929688 42.378906 36.21875 42.378906 " fill-opacity="1" fill-rule="nonzero"/><path fill="#7ed957" d="M 30.828125 38.792969 C 29.167969 35.945312 26.082031 34.179688 22.769531 34.179688 C 22.203125 34.179688 21.738281 34.640625 21.738281 35.203125 C 21.738281 35.769531 22.203125 36.230469 22.769531 36.230469 C 25.339844 36.230469 27.746094 37.605469 29.039062 39.816406 C 29.234375 40.144531 29.582031 40.328125 29.9375 40.328125 C 30.113281 40.328125 30.292969 40.285156 30.453125 40.1875 C 30.949219 39.910156 31.121094 39.28125 30.828125 38.792969 " fill-opacity="1" fill-rule="nonzero"/><g clip-path="url(#625d9cc0db)"><g fill="#7ed957" fill-opacity="1"><g transform="translate(-1.371145, 74.811616)"><g><path d="M 8.75 -11.453125 L 8.75 -9.5625 L 3.75 -9.5625 L 3.75 -6.53125 L 8.296875 -6.53125 L 8.296875 -4.65625 L 3.75 -4.65625 L 3.75 0 L 1.484375 0 L 1.484375 -11.453125 Z M 8.75 -11.453125 "/></g></g></g></g><g clip-path="url(#5b2b1ece83)"><g fill="#7ed957" fill-opacity="1"><g transform="translate(7.881265, 74.811616)"><g><path d="M 5.015625 0.171875 C 4.171875 0.171875 3.425781 0 2.78125 -0.34375 C 2.144531 -0.695312 1.648438 -1.207031 1.296875 -1.875 C 0.953125 -2.550781 0.78125 -3.363281 0.78125 -4.3125 C 0.78125 -5.269531 0.953125 -6.082031 1.296875 -6.75 C 1.648438 -7.425781 2.144531 -7.9375 2.78125 -8.28125 C 3.425781 -8.632812 4.171875 -8.8125 5.015625 -8.8125 C 5.867188 -8.8125 6.613281 -8.632812 7.25 -8.28125 C 7.894531 -7.9375 8.394531 -7.425781 8.75 -6.75 C 9.101562 -6.082031 9.28125 -5.269531 9.28125 -4.3125 C 9.28125 -3.363281 9.101562 -2.550781 8.75 -1.875 C 8.394531 -1.207031 7.894531 -0.695312 7.25 -0.34375 C 6.613281 0 5.867188 0.171875 5.015625 0.171875 Z M 5.015625 -1.671875 C 6.359375 -1.671875 7.03125 -2.550781 7.03125 -4.3125 C 7.03125 -5.226562 6.859375 -5.898438 6.515625 -6.328125 C 6.171875 -6.753906 5.671875 -6.96875 5.015625 -6.96875 C 3.679688 -6.96875 3.015625 -6.082031 3.015625 -4.3125 C 3.015625 -2.550781 3.679688 -1.671875 5.015625 -1.671875 Z M 5.015625 -1.671875 "/></g></g></g></g><g clip-path="url(#e2a9ef58e1)"><g fill="#7ed957" fill-opacity="1"><g transform="translate(17.916451, 74.811616)"><g><path d="M 5.015625 0.171875 C 4.171875 0.171875 3.425781 0 2.78125 -0.34375 C 2.144531 -0.695312 1.648438 -1.207031 1.296875 -1.875 C 0.953125 -2.550781 0.78125 -3.363281 0.78125 -4.3125 C 0.78125 -5.269531 0.953125 -6.082031 1.296875 -6.75 C 1.648438 -7.425781 2.144531 -7.9375 2.78125 -8.28125 C 3.425781 -8.632812 4.171875 -8.8125 5.015625 -8.8125 C 5.867188 -8.8125 6.613281 -8.632812 7.25 -8.28125 C 7.894531 -7.9375 8.394531 -7.425781 8.75 -6.75 C 9.101562 -6.082031 9.28125 -5.269531 9.28125 -4.3125 C 9.28125 -3.363281 9.101562 -2.550781 8.75 -1.875 C 8.394531 -1.207031 7.894531 -0.695312 7.25 -0.34375 C 6.613281 0 5.867188 0.171875 5.015625 0.171875 Z M 5.015625 -1.671875 C 6.359375 -1.671875 7.03125 -2.550781 7.03125 -4.3125 C 7.03125 -5.226562 6.859375 -5.898438 6.515625 -6.328125 C 6.171875 -6.753906 5.671875 -6.96875 5.015625 -6.96875 C 3.679688 -6.96875 3.015625 -6.082031 3.015625 -4.3125 C 3.015625 -2.550781 3.679688 -1.671875 5.015625 -1.671875 Z M 5.015625 -1.671875 "/></g></g></g></g><g clip-path="url(#bc09d9f6c0)"><g fill="#7ed957" fill-opacity="1"><g transform="translate(27.951637, 74.811616)"><g><path d="M 4.265625 0.171875 C 3.585938 0.171875 2.984375 0.00390625 2.453125 -0.328125 C 1.929688 -0.660156 1.519531 -1.160156 1.21875 -1.828125 C 0.925781 -2.503906 0.78125 -3.332031 0.78125 -4.3125 C 0.78125 -5.300781 0.929688 -6.128906 1.234375 -6.796875 C 1.535156 -7.472656 1.957031 -7.976562 2.5 -8.3125 C 3.039062 -8.644531 3.664062 -8.8125 4.375 -8.8125 C 4.914062 -8.8125 5.382812 -8.71875 5.78125 -8.53125 C 6.175781 -8.34375 6.507812 -8.050781 6.78125 -7.65625 L 6.9375 -7.703125 L 6.9375 -12.109375 L 9.109375 -12.109375 L 9.109375 0 L 6.9375 0 L 6.9375 -1.125 L 6.78125 -1.15625 C 6.539062 -0.75 6.207031 -0.425781 5.78125 -0.1875 C 5.363281 0.0507812 4.859375 0.171875 4.265625 0.171875 Z M 4.96875 -1.671875 C 5.582031 -1.671875 6.066406 -1.890625 6.421875 -2.328125 C 6.773438 -2.765625 6.953125 -3.425781 6.953125 -4.3125 C 6.953125 -5.207031 6.773438 -5.875 6.421875 -6.3125 C 6.066406 -6.75 5.582031 -6.96875 4.96875 -6.96875 C 4.332031 -6.96875 3.847656 -6.753906 3.515625 -6.328125 C 3.179688 -5.898438 3.015625 -5.226562 3.015625 -4.3125 C 3.015625 -3.40625 3.179688 -2.738281 3.515625 -2.3125 C 3.847656 -1.882812 4.332031 -1.671875 4.96875 -1.671875 Z M 4.96875 -1.671875 "/></g></g></g></g><g clip-path="url(#80b7df98eb)"><g fill="#7ed957" fill-opacity="1"><g transform="translate(38.299934, 74.811616)"><g><path d="M 2.328125 -9.671875 C 1.929688 -9.671875 1.609375 -9.789062 1.359375 -10.03125 C 1.117188 -10.269531 1 -10.578125 1 -10.953125 C 1 -11.328125 1.117188 -11.628906 1.359375 -11.859375 C 1.609375 -12.097656 1.929688 -12.21875 2.328125 -12.21875 C 2.585938 -12.21875 2.816406 -12.160156 3.015625 -12.046875 C 3.222656 -11.941406 3.382812 -11.796875 3.5 -11.609375 C 3.613281 -11.421875 3.671875 -11.203125 3.671875 -10.953125 C 3.671875 -10.703125 3.613281 -10.476562 3.5 -10.28125 C 3.382812 -10.09375 3.222656 -9.941406 3.015625 -9.828125 C 2.816406 -9.722656 2.585938 -9.671875 2.328125 -9.671875 Z M 1.25 0 L 1.25 -8.640625 L 3.421875 -8.640625 L 3.421875 0 Z M 1.25 0 "/></g></g></g></g><g clip-path="url(#bf9c4ac9bc)"><g fill="#7ed957" fill-opacity="1"><g transform="translate(42.949622, 74.811616)"><g><path d="M 8.546875 -3.828125 L 2.984375 -3.828125 C 3.046875 -3.078125 3.257812 -2.53125 3.625 -2.1875 C 3.988281 -1.84375 4.488281 -1.671875 5.125 -1.671875 C 5.625 -1.671875 6.023438 -1.765625 6.328125 -1.953125 C 6.640625 -2.140625 6.890625 -2.421875 7.078125 -2.796875 L 7.234375 -2.796875 L 8.6875 -1.875 C 8.40625 -1.269531 7.976562 -0.773438 7.40625 -0.390625 C 6.832031 -0.015625 6.070312 0.171875 5.125 0.171875 C 4.226562 0.171875 3.453125 0 2.796875 -0.34375 C 2.148438 -0.6875 1.648438 -1.191406 1.296875 -1.859375 C 0.953125 -2.535156 0.78125 -3.351562 0.78125 -4.3125 C 0.78125 -5.300781 0.960938 -6.128906 1.328125 -6.796875 C 1.703125 -7.472656 2.203125 -7.976562 2.828125 -8.3125 C 3.460938 -8.644531 4.175781 -8.8125 4.96875 -8.8125 C 6.1875 -8.8125 7.117188 -8.484375 7.765625 -7.828125 C 8.421875 -7.179688 8.75 -6.234375 8.75 -4.984375 C 8.75 -4.523438 8.734375 -4.171875 8.703125 -3.921875 Z M 6.671875 -5.234375 C 6.648438 -5.890625 6.5 -6.367188 6.21875 -6.671875 C 5.9375 -6.972656 5.519531 -7.125 4.96875 -7.125 C 3.875 -7.125 3.226562 -6.492188 3.03125 -5.234375 Z M 6.671875 -5.234375 "/></g></g></g></g></svg>