<svg xmlns="http://www.w3.org/2000/svg" xmlns:xlink="http://www.w3.org/1999/xlink" width="122" zoomAndPan="magnify" viewBox="0 0 91.5 91.499997" height="122" preserveAspectRatio="xMidYMid meet" version="1.0"><defs><clipPath id="ff51a67480"><path d="M 1.03125 27 L 90.28125 27 L 90.28125 91.003906 L 1.03125 91.003906 Z M 1.03125 27 " clip-rule="nonzero"/></clipPath><clipPath id="43522348cd"><path d="M 1.03125 0 L 90.28125 0 L 90.28125 28 L 1.03125 28 Z M 1.03125 0 " clip-rule="nonzero"/></clipPath></defs><g clip-path="url(#ff51a67480)"><path fill="#ff8210" d="M 90.285156 91.507812 L 1.023438 91.507812 L 1.023438 27.4375 L 90.285156 27.4375 L 90.285156 91.507812 " fill-opacity="1" fill-rule="nonzero"/></g><path fill="#eef1f1" d="M 50.847656 44.632812 C 50.914062 44.300781 50.949219 43.957031 50.949219 43.605469 C 50.949219 40.675781 48.578125 38.300781 45.65625 38.300781 C 42.730469 38.300781 40.359375 40.675781 40.359375 43.605469 C 40.359375 43.957031 40.394531 44.300781 40.460938 44.632812 C 31.03125 46.777344 23.769531 54.636719 22.484375 64.382812 L 68.824219 64.382812 C 67.542969 54.636719 60.277344 46.777344 50.847656 44.632812 " fill-opacity="1" fill-rule="nonzero"/><path fill="#eef1f1" d="M 74.109375 65.929688 L 17.199219 65.929688 C 16.105469 65.929688 15.214844 66.824219 15.214844 67.921875 C 15.214844 69.019531 16.105469 69.910156 17.199219 69.910156 L 74.109375 69.910156 C 75.203125 69.910156 76.09375 69.019531 76.09375 67.921875 C 76.09375 66.824219 75.203125 65.929688 74.109375 65.929688 " fill-opacity="1" fill-rule="nonzero"/><g clip-path="url(#43522348cd)"><path fill="#f36805" d="M 55.433594 11.953125 L 35.878906 11.953125 C 33.125 11.953125 30.894531 10.035156 30.894531 7.671875 C 30.894531 5.304688 33.125 3.390625 35.878906 3.390625 L 55.433594 3.390625 C 58.183594 3.390625 60.414062 5.304688 60.414062 7.671875 C 60.414062 10.035156 58.183594 11.953125 55.433594 11.953125 Z M 69.847656 12.890625 L 69.847656 8.203125 C 69.847656 3.6875 66.191406 0.0234375 61.679688 0.0234375 L 29.625 0.0234375 C 25.117188 0.0234375 21.464844 3.6875 21.464844 8.203125 L 21.464844 12.890625 L 1.023438 27.4375 L 90.285156 27.4375 L 69.847656 12.890625 " fill-opacity="1" fill-rule="nonzero"/></g></svg>