<svg xmlns="http://www.w3.org/2000/svg" xmlns:xlink="http://www.w3.org/1999/xlink" width="500" zoomAndPan="magnify" viewBox="0 0 375 374.999991" height="500" preserveAspectRatio="xMidYMid meet" version="1.0"><defs><g/><clipPath id="3e42ef924b"><path d="M 82.117188 14.539062 L 292.867188 14.539062 L 292.867188 267.289062 L 82.117188 267.289062 Z M 82.117188 14.539062 " clip-rule="nonzero"/></clipPath></defs><g clip-path="url(#3e42ef924b)"><path fill="#7ed957" d="M 284.390625 246.226562 C 284.390625 253.171875 278.710938 258.867188 271.75 258.867188 C 264.789062 258.867188 259.113281 253.171875 259.113281 246.226562 L 259.113281 86.023438 C 262.652344 88.71875 266.996094 90.367188 271.75 90.367188 C 276.507812 90.367188 280.851562 88.71875 284.390625 86.023438 Z M 103.238281 258.867188 C 96.277344 258.867188 90.597656 253.171875 90.597656 246.226562 L 90.597656 73.515625 L 124.300781 73.515625 L 124.300781 91.121094 C 119.414062 92.898438 115.875 97.523438 115.875 103.003906 C 115.875 109.949219 121.554688 115.640625 128.515625 115.640625 C 135.476562 115.640625 141.152344 109.949219 141.152344 103.003906 C 141.152344 97.523438 137.613281 92.898438 132.726562 91.121094 L 132.726562 73.515625 L 208.558594 73.515625 L 208.558594 91.121094 C 203.671875 92.898438 200.132812 97.523438 200.132812 103.003906 C 200.132812 109.949219 205.808594 115.640625 212.769531 115.640625 C 219.730469 115.640625 225.410156 109.949219 225.410156 103.003906 C 225.410156 97.523438 221.871094 92.898438 216.984375 91.121094 L 216.984375 73.515625 L 250.6875 73.515625 L 250.6875 246.226562 C 250.6875 250.984375 252.332031 255.328125 255.03125 258.867188 Z M 128.515625 98.789062 C 130.835938 98.789062 132.726562 100.683594 132.726562 103.003906 C 132.726562 105.324219 130.835938 107.214844 128.515625 107.214844 C 126.195312 107.214844 124.300781 105.324219 124.300781 103.003906 C 124.300781 100.683594 126.195312 98.789062 128.515625 98.789062 Z M 132.726562 60.878906 C 132.726562 39.980469 149.742188 22.964844 170.640625 22.964844 C 171.5625 22.964844 172.503906 23.046875 173.390625 23.097656 C 161.542969 31.523438 153.792969 45.296875 153.792969 60.878906 L 153.792969 65.089844 L 132.726562 65.089844 Z M 208.558594 60.878906 L 208.558594 65.089844 L 162.214844 65.089844 L 162.214844 60.878906 C 162.214844 45.214844 171.777344 31.738281 185.386719 25.960938 C 198.996094 31.738281 208.558594 45.214844 208.558594 60.878906 Z M 216.984375 103.003906 C 216.984375 105.324219 215.089844 107.214844 212.769531 107.214844 C 210.449219 107.214844 208.558594 105.324219 208.558594 103.003906 C 208.558594 100.683594 210.449219 98.789062 212.769531 98.789062 C 215.089844 98.789062 216.984375 100.683594 216.984375 103.003906 Z M 200.132812 22.964844 C 221.03125 22.964844 238.046875 39.980469 238.046875 60.878906 L 238.046875 65.089844 L 216.984375 65.089844 L 216.984375 60.878906 C 216.984375 45.296875 209.234375 31.523438 197.382812 23.097656 C 198.273438 23.046875 199.210938 22.964844 200.132812 22.964844 Z M 288.601562 65.089844 L 267.539062 65.089844 C 265.21875 65.089844 263.324219 66.984375 263.324219 69.304688 C 263.324219 71.625 265.21875 73.515625 267.539062 73.515625 L 283.683594 73.515625 C 281.9375 78.402344 277.230469 81.941406 271.75 81.941406 C 264.789062 81.941406 259.113281 76.246094 259.113281 69.304688 C 259.113281 66.984375 257.21875 65.089844 254.898438 65.089844 L 246.472656 65.089844 L 246.472656 60.878906 C 246.472656 35.308594 225.707031 14.539062 200.132812 14.539062 C 194.996094 14.539062 190.011719 15.429688 185.386719 16.992188 C 180.761719 15.429688 175.777344 14.539062 170.640625 14.539062 C 145.070312 14.539062 124.300781 35.308594 124.300781 60.878906 L 124.300781 65.089844 L 86.386719 65.089844 C 84.066406 65.089844 82.171875 66.984375 82.171875 69.304688 L 82.171875 246.226562 C 82.171875 257.863281 91.601562 267.289062 103.238281 267.289062 L 271.75 267.289062 C 283.386719 267.289062 292.816406 257.863281 292.816406 246.226562 L 292.816406 69.304688 C 292.816406 66.984375 290.921875 65.089844 288.601562 65.089844 " fill-opacity="1" fill-rule="nonzero"/></g><path fill="#7ed957" d="M 229.621094 204.101562 L 111.664062 204.101562 C 109.34375 204.101562 107.449219 202.210938 107.449219 199.890625 C 107.449219 197.570312 109.34375 195.679688 111.664062 195.679688 L 229.621094 195.679688 C 231.941406 195.679688 233.835938 197.570312 233.835938 199.890625 C 233.835938 202.210938 231.941406 204.101562 229.621094 204.101562 Z M 210.15625 220.953125 L 131.128906 220.953125 L 126.917969 212.527344 L 214.367188 212.527344 Z M 166.429688 145.128906 L 174.855469 145.128906 C 198.996094 145.128906 218.875 163.65625 221.03125 187.253906 L 120.253906 187.253906 C 122.410156 163.65625 142.289062 145.128906 166.429688 145.128906 Z M 170.640625 128.277344 C 172.960938 128.277344 174.855469 130.171875 174.855469 132.492188 C 174.855469 134.8125 172.960938 136.703125 170.640625 136.703125 C 168.320312 136.703125 166.429688 134.8125 166.429688 132.492188 C 166.429688 130.171875 168.320312 128.277344 170.640625 128.277344 Z M 229.621094 187.253906 L 229.410156 187.253906 C 227.433594 161.515625 207.636719 140.75 182.308594 137.296875 C 182.933594 135.78125 183.28125 134.167969 183.28125 132.492188 C 183.28125 125.546875 177.601562 119.851562 170.640625 119.851562 C 163.679688 119.851562 158.003906 125.546875 158.003906 132.492188 C 158.003906 134.167969 158.347656 135.78125 158.976562 137.296875 C 133.648438 140.75 113.851562 161.515625 111.875 187.253906 L 111.664062 187.253906 C 104.703125 187.253906 99.023438 192.945312 99.023438 199.890625 C 99.023438 206.835938 104.703125 212.527344 111.664062 212.527344 L 117.472656 212.527344 L 124.761719 227.058594 C 125.484375 228.488281 126.917969 229.378906 128.515625 229.378906 L 212.769531 229.378906 C 214.367188 229.378906 215.800781 228.488281 216.523438 227.058594 L 223.8125 212.527344 L 229.621094 212.527344 C 236.582031 212.527344 242.261719 206.835938 242.261719 199.890625 C 242.261719 192.945312 236.582031 187.253906 229.621094 187.253906 " fill-opacity="1" fill-rule="nonzero"/><path fill="#7ed957" d="M 207.667969 172.507812 C 200.90625 160.808594 188.332031 153.554688 174.855469 153.554688 C 172.535156 153.554688 170.640625 155.445312 170.640625 157.765625 C 170.640625 160.085938 172.535156 161.976562 174.855469 161.976562 C 185.320312 161.976562 195.113281 167.640625 200.378906 176.722656 C 201.167969 178.070312 202.585938 178.828125 204.03125 178.828125 C 204.757812 178.828125 205.480469 178.648438 206.140625 178.253906 C 208.164062 177.101562 208.855469 174.515625 207.667969 172.507812 " fill-opacity="1" fill-rule="nonzero"/><g fill="#7ed957" fill-opacity="1"><g transform="translate(31.760206, 356.840493)"><g><path d="M 45.265625 -61.265625 L 45.265625 -55.3125 L 16.46875 -55.3125 L 16.46875 -33.03125 L 42.375 -33.03125 L 42.375 -27.03125 L 16.46875 -27.03125 L 16.46875 0 L 9.265625 0 L 9.265625 -61.265625 Z M 45.265625 -61.265625 "/></g></g></g><g fill="#7ed957" fill-opacity="1"><g transform="translate(80.323738, 356.840493)"><g><path d="M 26.53125 0.875 C 22.164062 0.875 18.367188 -0.046875 15.140625 -1.890625 C 11.921875 -3.734375 9.4375 -6.445312 7.6875 -10.03125 C 5.945312 -13.625 5.078125 -17.976562 5.078125 -23.09375 C 5.078125 -28.207031 5.945312 -32.566406 7.6875 -36.171875 C 9.4375 -39.773438 11.921875 -42.5 15.140625 -44.34375 C 18.367188 -46.1875 22.164062 -47.109375 26.53125 -47.109375 C 30.882812 -47.109375 34.675781 -46.1875 37.90625 -44.34375 C 41.132812 -42.5 43.617188 -39.773438 45.359375 -36.171875 C 47.109375 -32.566406 47.984375 -28.207031 47.984375 -23.09375 C 47.984375 -17.976562 47.109375 -13.625 45.359375 -10.03125 C 43.617188 -6.445312 41.132812 -3.734375 37.90625 -1.890625 C 34.675781 -0.046875 30.882812 0.875 26.53125 0.875 Z M 26.53125 -5.234375 C 31.132812 -5.234375 34.660156 -6.6875 37.109375 -9.59375 C 39.554688 -12.5 40.78125 -17 40.78125 -23.09375 C 40.78125 -29.207031 39.554688 -33.71875 37.109375 -36.625 C 34.660156 -39.53125 31.132812 -40.984375 26.53125 -40.984375 C 21.914062 -40.984375 18.378906 -39.523438 15.921875 -36.609375 C 13.460938 -33.691406 12.234375 -29.1875 12.234375 -23.09375 C 12.234375 -17 13.460938 -12.5 15.921875 -9.59375 C 18.378906 -6.6875 21.914062 -5.234375 26.53125 -5.234375 Z M 26.53125 -5.234375 "/></g></g></g><g fill="#7ed957" fill-opacity="1"><g transform="translate(133.370697, 356.840493)"><g><path d="M 26.53125 0.875 C 22.164062 0.875 18.367188 -0.046875 15.140625 -1.890625 C 11.921875 -3.734375 9.4375 -6.445312 7.6875 -10.03125 C 5.945312 -13.625 5.078125 -17.976562 5.078125 -23.09375 C 5.078125 -28.207031 5.945312 -32.566406 7.6875 -36.171875 C 9.4375 -39.773438 11.921875 -42.5 15.140625 -44.34375 C 18.367188 -46.1875 22.164062 -47.109375 26.53125 -47.109375 C 30.882812 -47.109375 34.675781 -46.1875 37.90625 -44.34375 C 41.132812 -42.5 43.617188 -39.773438 45.359375 -36.171875 C 47.109375 -32.566406 47.984375 -28.207031 47.984375 -23.09375 C 47.984375 -17.976562 47.109375 -13.625 45.359375 -10.03125 C 43.617188 -6.445312 41.132812 -3.734375 37.90625 -1.890625 C 34.675781 -0.046875 30.882812 0.875 26.53125 0.875 Z M 26.53125 -5.234375 C 31.132812 -5.234375 34.660156 -6.6875 37.109375 -9.59375 C 39.554688 -12.5 40.78125 -17 40.78125 -23.09375 C 40.78125 -29.207031 39.554688 -33.71875 37.109375 -36.625 C 34.660156 -39.53125 31.132812 -40.984375 26.53125 -40.984375 C 21.914062 -40.984375 18.378906 -39.523438 15.921875 -36.609375 C 13.460938 -33.691406 12.234375 -29.1875 12.234375 -23.09375 C 12.234375 -17 13.460938 -12.5 15.921875 -9.59375 C 18.378906 -6.6875 21.914062 -5.234375 26.53125 -5.234375 Z M 26.53125 -5.234375 "/></g></g></g><g fill="#7ed957" fill-opacity="1"><g transform="translate(186.417655, 356.840493)"><g><path d="M 23.96875 0.875 C 20.25 0.875 16.972656 -0.0078125 14.140625 -1.78125 C 11.304688 -3.550781 9.085938 -6.222656 7.484375 -9.796875 C 5.878906 -13.378906 5.078125 -17.8125 5.078125 -23.09375 C 5.078125 -28.375 5.910156 -32.804688 7.578125 -36.390625 C 9.253906 -39.984375 11.566406 -42.664062 14.515625 -44.4375 C 17.460938 -46.21875 20.878906 -47.109375 24.765625 -47.109375 C 27.835938 -47.109375 30.601562 -46.523438 33.0625 -45.359375 C 35.519531 -44.203125 37.628906 -42.296875 39.390625 -39.640625 L 40.28125 -39.8125 L 40.28125 -64.796875 L 47.109375 -64.796875 L 47.109375 0 L 40.28125 0 L 40.28125 -6.75 L 39.390625 -6.921875 C 37.878906 -4.628906 35.832031 -2.753906 33.25 -1.296875 C 30.664062 0.148438 27.570312 0.875 23.96875 0.875 Z M 26.109375 -5.234375 C 30.410156 -5.234375 33.847656 -6.707031 36.421875 -9.65625 C 38.992188 -12.601562 40.28125 -17.082031 40.28125 -23.09375 C 40.28125 -29.125 38.992188 -33.613281 36.421875 -36.5625 C 33.847656 -39.507812 30.410156 -40.984375 26.109375 -40.984375 C 21.671875 -40.984375 18.25 -39.546875 15.84375 -36.671875 C 13.4375 -33.796875 12.234375 -29.269531 12.234375 -23.09375 C 12.234375 -11.1875 16.859375 -5.234375 26.109375 -5.234375 Z M 26.109375 -5.234375 "/></g></g></g><g fill="#7ed957" fill-opacity="1"><g transform="translate(241.601571, 356.840493)"><g><path d="M 11.484375 -55.15625 C 10.023438 -55.15625 8.84375 -55.609375 7.9375 -56.515625 C 7.03125 -57.421875 6.578125 -58.570312 6.578125 -59.96875 C 6.578125 -61.363281 7.03125 -62.515625 7.9375 -63.421875 C 8.84375 -64.335938 10.023438 -64.796875 11.484375 -64.796875 C 12.929688 -64.796875 14.109375 -64.335938 15.015625 -63.421875 C 15.929688 -62.515625 16.390625 -61.363281 16.390625 -59.96875 C 16.390625 -58.570312 15.929688 -57.421875 15.015625 -56.515625 C 14.109375 -55.609375 12.929688 -55.15625 11.484375 -55.15625 Z M 8.046875 0 L 8.046875 -46.21875 L 14.875 -46.21875 L 14.875 0 Z M 8.046875 0 "/></g></g></g><g fill="#7ed957" fill-opacity="1"><g transform="translate(264.52156, 356.840493)"><g><path d="M 44.046875 -21.546875 L 12.28125 -21.546875 C 12.476562 -15.929688 13.828125 -11.804688 16.328125 -9.171875 C 18.828125 -6.546875 22.253906 -5.234375 26.609375 -5.234375 C 29.910156 -5.234375 32.566406 -5.820312 34.578125 -7 C 36.585938 -8.175781 38.164062 -10.019531 39.3125 -12.53125 L 40.1875 -12.53125 L 44.625 -9.890625 C 43.289062 -6.535156 41.148438 -3.898438 38.203125 -1.984375 C 35.253906 -0.078125 31.390625 0.875 26.609375 0.875 C 22.140625 0.875 18.296875 -0.00390625 15.078125 -1.765625 C 11.867188 -3.523438 9.398438 -6.191406 7.671875 -9.765625 C 5.941406 -13.335938 5.078125 -17.78125 5.078125 -23.09375 C 5.078125 -28.34375 5.988281 -32.769531 7.8125 -36.375 C 9.644531 -39.976562 12.144531 -42.664062 15.3125 -44.4375 C 18.488281 -46.21875 22.113281 -47.109375 26.1875 -47.109375 C 32.113281 -47.109375 36.738281 -45.4375 40.0625 -42.09375 C 43.382812 -38.757812 45.0625 -33.804688 45.09375 -27.234375 C 45.09375 -24.671875 45.035156 -22.941406 44.921875 -22.046875 Z M 38.34375 -27.234375 C 38.226562 -32.148438 37.132812 -35.726562 35.0625 -37.96875 C 33 -40.207031 30.039062 -41.328125 26.1875 -41.328125 C 22.132812 -41.328125 18.957031 -40.203125 16.65625 -37.953125 C 14.351562 -35.703125 12.953125 -32.128906 12.453125 -27.234375 Z M 38.34375 -27.234375 "/></g></g></g></svg>